# AST/ASF file generated using VICON BodyLanguage
# -----------------------------------------------
:version 1.10
:name VICON
:units
  mass 1.0
  length 0.45
  angle deg
:documentation
   .ast/.asf automatically generated from VICON data using
   VICON BodyBuilder and BodyLanguage model FoxedUp or BRILLIANT.MOD
:root
   order TX TY TZ RX RY RZ
   axis XYZ
   position 0 0 0  
   orientation 0 0 0 
:bonedata
  begin
     id 1 
     name lhipjoint
     direction 0.57768 -0.667037 0.470475 
     length 2.36008 
     axis 0 0 0  XYZ
  end
  begin
     id 2 
     name lfemur
     direction 0.34202 -0.939693 0  
     length 6.97235  
     axis 0 0 20  XYZ
    dof rx ry rz
    limits (-160.0 20.0)
           (-70.0 70.0)
           (-60.0 70.0)
  end
  begin
     id 3 
     name ltibia
     direction 0.34202 -0.939693 0   
     length 6.93428   
     axis 0 0 20   XYZ
    dof rx
    limits (-10.0 170.0)
  end
  begin
     id 4 
     name lfoot
     direction 0.133018 -0.365463 0.921272   
     length 2.18603   
     axis -90 7.62852e-016 20   XYZ
    dof rx rz
    limits (-45.0 90.0)
           (-70.0 20.0)
  end
  begin
     id 5 
     name ltoes
     direction 1.53519e-011 -4.22055e-011 1   
     length 1.07924   
     axis -90 7.62852e-016 20   XYZ
    dof rx
    limits (-90.0 20.0)
  end
  begin
     id 6 
     name rhipjoint
     direction -0.577712 -0.667019 0.470462   
     length 2.36015  
     axis 0 0 0  XYZ 
  end
  begin
     id 7 
     name rfemur
     direction -0.34202 -0.939693 0   
     length 6.71195   
     axis 0 0 -20   XYZ
    dof rx ry rz
    limits (-160.0 20.0)
           (-70.0 70.0)
           (-70.0 60.0)
  end
  begin
     id 8 
     name rtibia
     direction -0.34202 -0.939693 0   
     length 7.04592   
     axis 0 0 -20   XYZ
    dof rx
    limits (-10.0 170.0)
 end
 begin
     id 9 
     name rfoot
     direction -0.113796 -0.312651 0.943027   
     length 2.03846  
     axis -90 -7.62852e-016 -20   XYZ
    dof rx rz
    limits (-45.0 90.0)
           (-20.0 70.0)
  end
  begin
     id 10 
     name rtoes
     direction -1.53586e-011 -4.218e-011 1   
     length 1.01562   
     axis -90 -7.62852e-016 -20   XYZ
    dof rx
    limits (-90.0 20.0)
  end
  begin
     id 11 
     name lowerback
     direction -0.0417299 0.991937 -0.119667   
     length 2.05257   
     axis 0 0 0   XYZ
    dof rx ry rz
    limits (-20.0 45.0)
           (-30.0 30.0)
           (-30.0 30.0)
  end
  begin
     id 12 
     name upperback
     direction -0.00017666 0.999999 0.00105178   
     length 2.05693   
     axis 0 0 0   XYZ
    dof rx ry rz
    limits (-20.0 45.0)
           (-30.0 30.0)
           (-30.0 30.0)
  end
  begin
     id 13 
     name thorax
     direction 0.0185169 0.998203 0.0569866   
     length 2.0932   
     axis 0 0 0   XYZ
    dof rx ry rz
    limits (-20.0 45.0)
           (-30.0 30.0)
           (-30.0 30.0)
  end
  begin
     id 14 
     name lowerneck
     direction -0.0212406 0.982645 0.184277   
     length 1.72509   
     axis 0 0 0   XYZ
    dof rx ry rz
    limits (-20.0 45.0)
           (-30.0 30.0)
           (-30.0 30.0)
  end
  begin
     id 15 
     name upperneck
     direction 0.00528579 0.965323 -0.261004   
     length 1.76294   
     axis 0 0 0   XYZ
    dof rx ry rz
    limits (-20.0 45.0)
           (-30.0 30.0)
           (-30.0 30.0)
  end
  begin
     id 16
     name head
     direction 0.00695421 0.994078 -0.108445  
     length 1.78678  
     axis 0 0 0   XYZ
    dof rx ry rz
    limits (-20.0 45.0)
           (-30.0 30.0)
           (-30.0 30.0)
  end
  begin
     id 17 
     name lclavicle
     direction 0.97277 0.211305 -0.095232  
     length 3.84823  
     axis 0 0 0   XYZ
    dof ry rz
    limits (-20.0 10.0)
           (0.0 20.0)
  end
  begin
     id 18 
     name lhumerus
     direction 1 -4.48957e-011 -1.98313e-027   
     length 4.97185   
     axis 180 -30 -90   XYZ
    dof rx ry rz
    limits (-60.0 90.0)
           (-90.0 90.0)
           (-90.0 90.0)
  end
  begin
     id 19
     name lradius
     direction 1 -4.4898e-011 7.31063e-027   
     length 3.35811   
     axis 180 -30 -90   XYZ
    dof rx
    limits (-10.0 170.0)
  end
  begin
     id 20
     name lwrist
     direction 1 -4.48938e-011 9.95048e-027   
     length 1.67905   
     axis -8.75986e-015 90 90   XYZ
    dof ry
    limits (-180.0 0.0)
 end
  begin
     id 21 
     name lhand
     direction 1 -4.4901e-011 1.9901e-026   
     length 0.622776   
     axis -1.26985e-014 90 90   XYZ
    dof rx rz
    limits (-90.0 90.0)
           (-45.0 45.0)
  end
  begin
     id 22 
     name lfingers
     direction 1 -4.48961e-011 3.98019e-026   
     length 0.502098   
     axis -2.5397e-014 90 90   XYZ
    dof rx
    limits (0.0 90.0)
  end
  begin
     id 23
     name lthumb
     direction 0.707107 -6.34933e-011 0.707107   
     length 0.720915   
     axis -90 45 2.85299e-015   XYZ
    dof rx rz
    limits (-45.0 45.0)
           (-45.0 45.0)
  end
  begin
     id 24 
     name rclavicle
     direction -0.990867 0.133739 -0.0172226   
     length 3.78845  
     axis 0 0 0   XYZ 
    dof ry rz
    limits (-10.0 20.0)
           (-20.0 0.0)
  end
  begin
     id 25 
     name rhumerus
     direction -1 -4.48972e-011 -1.99267e-027  
     length 4.96493   
     axis 180 30 90   XYZ
    dof rx ry rz
    limits (-90.0 60.0)
           (-90.0 90.0)
           (-90.0 90.0)
  end
  begin
     id 26 
     name rradius
     direction -1 -4.48969e-011 8.96093e-027   
     length 3.34929   
     axis 180 30 90   XYZ
    dof rx
    limits (-10.0 170.0)
  end
  begin
     id 27 
     name rwrist
     direction -1 -4.48953e-011 9.95048e-027   
     length 1.67464   
     axis -8.75986e-015 -90 -90   XYZ
    dof ry
    limits (-180.0 0.0)
  end
  begin
     id 28
     name rhand
     direction -1 -4.49001e-011 1.9901e-026   
     length 0.638041   
     axis -1.26985e-014 -90 -90   XYZ
    dof rx rz
    limits (-90.0 90.0)
           (-45.0 45.0)
  end
  begin
     id 29
     name rfingers
     direction -1 -4.48967e-011 3.98019e-026   
     length 0.514405   
     axis -2.5397e-014 -90 -90   XYZ
    dof rx
    limits (0.0 90.0)
  end
  begin
     id 30
     name rthumb
     direction -0.707107 -6.34904e-011 0.707107   
     length 0.738586   
     axis -90 -45 -2.85299e-015   XYZ
    dof rx rz
    limits (-45.0 45.0)
           (-45.0 45.0)
  end
:hierarchy
  begin
    root lhipjoint rhipjoint lowerback
    lhipjoint lfemur
    lfemur ltibia
    ltibia lfoot
    lfoot ltoes
    rhipjoint rfemur
    rfemur rtibia
    rtibia rfoot
    rfoot rtoes
    lowerback upperback
    upperback thorax
    thorax lowerneck lclavicle rclavicle
    lowerneck upperneck
    upperneck head
    lclavicle lhumerus
    lhumerus lradius
    lradius lwrist
    lwrist lhand lthumb
    lhand lfingers
    rclavicle rhumerus
    rhumerus rradius
    rradius rwrist
    rwrist rhand rthumb
    rhand rfingers
  end

#!OML:ASF E:\Mandelcareful walks\Project 1\Capture day 1\Session 1\Subject1.ASF
:FULLY-SPECIFIED
:DEGREES
279
root -26.6 16.4162 -14.8805 167.505 81.4491 161.808
lowerback -6.78534 -0.187878 -7.02276
upperback 1.12163 0.401209 -0.647918
thorax 4.95033 0.0160541 3.31392
lowerneck -21.0783 -0.831484 -2.62788
upperneck 42.2734 0.833733 2.52387
head 20.1386 0.878095 2.16607
rclavicle 1.68967e-015 3.57812e-015
rhumerus -34.015 -5.44621 -85.0633
rradius 29.7736
rwrist -10.7895
rhand -9.33449 -30.9391
rfingers 7.12502
rthumb 16.6244 -60.2471
lclavicle 1.68967e-015 3.57812e-015
lhumerus -28.5296 -4.38796 94.3855
lradius 22.9741
lwrist 5.63435
lhand -18.3792 -6.72878
lfingers 7.12502
lthumb 7.90432 23.1034
rfemur -13.4474 -3.31888 11.8398
rtibia 31.6881
rfoot -21.9468 -8.45599
rtoes 0.68072
lfemur -8.47781 -1.67004 -26.2724
ltibia 27.3994
lfoot -26.6363 9.79894
ltoes 9.03135
280
root -26.5915 16.4132 -14.8968 166.471 81.4068 160.956
lowerback -6.44016 -0.173595 -7.25372
upperback 1.11275 0.411364 -0.673022
thorax 4.74392 0.0227924 3.41594
lowerneck -20.9552 -0.810492 -2.56632
upperneck 42.3245 0.876965 2.47528
head 20.1353 0.90248 2.14185
rclavicle -1.22501e-014 -1.39149e-015
rhumerus -34.1894 -5.59569 -84.9075
rradius 29.8522
rwrist -10.8183
rhand -9.18079 -30.6382
rfingers 7.12502
rthumb 16.7724 -59.9337
lclavicle -1.22501e-014 -1.39149e-015
lhumerus -28.604 -4.31427 94.3626
lradius 22.9793
lwrist 5.69321
lhand -18.3719 -6.73006
lfingers 7.12502
lthumb 7.9114 23.1019
rfemur -13.7015 -3.45864 11.653
rtibia 32.5648
rfoot -21.7431 -8.66216
rtoes -0.311703
lfemur -8.11902 -1.72561 -26.486
ltibia 27.2237
lfoot -26.5652 9.73955
ltoes 9.39243
281
root -26.5836 16.4097 -14.9106 165.81 81.4672 160.366
lowerback -6.23115 -0.129207 -7.4015
upperback 1.08194 0.465698 -0.72135
thorax 4.58692 0.0532584 3.4522
lowerneck -20.9282 -0.821827 -2.27555
upperneck 42.5265 0.934609 2.10942
head 20.2658 0.925991 1.92906
rclavicle 8.02593e-015 3.57812e-015
rhumerus -34.3965 -5.81972 -84.8489
rradius 29.9732
rwrist -10.8629
rhand -9.10877 -30.6759
rfingers 7.12502
rthumb 16.8417 -59.9655
lclavicle 8.02593e-015 3.57812e-015
lhumerus -28.7395 -4.59608 94.3697
lradius 22.9494
lwrist 5.87903
lhand -18.9558 -6.88511
lfingers 7.12502
lthumb 7.34783 22.9673
rfemur -14.1666 -3.54006 11.5559
rtibia 33.4924
rfoot -21.448 -8.87582
rtoes -1.13731
lfemur -7.92216 -1.74946 -26.6139
ltibia 27.0519
lfoot -26.4362 9.93594
ltoes 9.90223
282
root -26.5711 16.4046 -14.9279 164.954 81.4823 159.603
lowerback -6.11677 -0.139281 -7.55265
upperback 1.11875 0.458494 -0.760623
thorax 4.56173 0.0467151 3.49435
lowerneck -20.7986 -0.766942 -2.35295
upperneck 42.4119 0.935141 2.33965
head 20.147 0.946398 2.05111
rclavicle -4.19933e-015 1.07344e-014
rhumerus -34.3652 -5.9084 -84.8188
rradius 29.915
rwrist -10.9345
rhand -9.01939 -30.9225
rfingers 7.12502
rthumb 16.9278 -60.2048
lclavicle -4.19933e-015 1.07344e-014
lhumerus -28.7804 -4.74622 94.3518
lradius 22.8807
lwrist 6.11346
lhand -19.5416 -6.86003
lfingers 7.12502
lthumb 6.78237 23.0113
rfemur -14.6124 -3.75378 11.3867
rtibia 34.4872
rfoot -21.1165 -8.99938
rtoes -1.52759
lfemur -7.65868 -1.7151 -26.7905
ltibia 26.8658
lfoot -26.5107 10.1756
ltoes 9.89815
283
root -26.5609 16.4028 -14.942 165.138 81.5434 159.979
lowerback -6.03433 -0.207958 -7.63278
upperback 1.29812 0.369096 -0.670273
thorax 4.71372 -0.0118567 3.6247
lowerneck -20.8119 -0.669963 -2.46947
upperneck 42.2888 1.04611 2.49615
head 20.0607 0.986671 2.16755
rclavicle -9.11925e-015 -2.5842e-015
rhumerus -34.0185 -5.79157 -84.7853
rradius 29.7781
rwrist -10.8919
rhand -8.9135 -30.9912
rfingers 7.12502
rthumb 17.0297 -60.2647
lclavicle -9.11925e-015 -2.5842e-015
lhumerus -28.6399 -4.60799 94.2889
lradius 22.828
lwrist 6.44328
lhand -19.7278 -6.94702
lfingers 7.12502
lthumb 6.60264 22.93
rfemur -14.981 -3.70274 11.4532
rtibia 35.5302
rfoot -20.9407 -9.38944
rtoes -1.16061
lfemur -7.31046 -1.49714 -26.7537
ltibia 26.6631
lfoot -26.4974 9.92627
ltoes 9.57897
